inDegrees=yes
name=ik_S50_A07_T01
DataType=double
version=3
OpenSimVersion=4.3-2021-08-27-4bc7ad9
endheader
time	pelvis_tilt	pelvis_list	pelvis_rotation	pelvis_tx	pelvis_ty	pelvis_tz	hip_flexion_r	hip_adduction_r	hip_rotation_r	knee_angle_r	knee_angle_r_beta	ankle_angle_r	subtalar_angle_r	mtp_angle_r	hip_flexion_l	hip_adduction_l	hip_rotation_l	knee_angle_l	knee_angle_l_beta	ankle_angle_l	subtalar_angle_l	mtp_angle_l	lumbar_extension	lumbar_bending	lumbar_rotation	arm_flex_r	arm_add_r	arm_rot_r	elbow_flex_r	pro_sup_r	wrist_flex_r	wrist_dev_r	arm_flex_l	arm_add_l	arm_rot_l	elbow_flex_l	pro_sup_l	wrist_flex_l	wrist_dev_l
13.4799999999998	-5.714575086091644	-2.530153933681824	28.32350944531802	0	0.9399999999999999	0	43.68003828508657	-10.10340769202326	-10.14288287406196	55.64525803894825	0.97119296590149	0	0	0	43.68003828508657	-10.10340769202326	-10.14288287406196	55.64525803894825	0.97119296590149	0	0	0	-4.282186499832606	-2.921039510843776	5.224365446971272	76.88857934893451	-24.22311446893517	9.313790588334973	119.9271231207963	63.53607678346066	0	0	15.03326198955871	-9.22741820306047	-8.074560401674521	61.96474680872755	123.6935930632315	0	0
13.4999999999998	-5.70990606955977	-2.535167779734338	28.32685727130189	0	0.9399999999999999	0	43.68018200053608	-10.10336941218101	-10.14284864035266	55.64520982184883	0.9711921243543494	0	0	0	43.68018200053608	-10.10336941218101	-10.14284864035266	55.64520982184883	0.9711921243543494	0	0	0	-4.280917417910484	-2.926536882014582	5.213977847551305	77.13785356926157	-24.20053181384365	9.345174628174187	119.9428214977609	63.55186757035811	0	0	15.02712117807923	-9.249061021830904	-8.074359857124959	61.96828800735853	123.6971804195367	0	0
13.5199999999998	-5.73281413635407	-2.533382348443239	28.32179395816732	0	0.9399999999999999	0	43.68054479401658	-10.10327095758714	-10.14276113973841	55.64509024887195	0.9711900374122064	0	0	0	43.68054479401658	-10.10327095758714	-10.14276113973841	55.64509024887195	0.9711900374122064	0	0	0	-4.30121565050757	-2.911980132744072	5.198955289867271	77.43352945640625	-24.16121398986992	9.433255440936909	119.9084039917615	63.56485525059462	0	0	15.09984143712078	-9.218278794352011	-8.093482151539545	61.95496225261723	123.6989147092168	0	0
13.5399999999998	-5.71718254503531	-2.532322567264677	28.33733738453628	0	0.9399999999999999	0	43.68065035872848	-10.10324298581375	-10.14273607542495	55.64505469457021	0.9711894168725779	0	0	0	43.68065035872848	-10.10324298581375	-10.14273607542495	55.64505469457021	0.9711894168725779	0	0	0	-4.287110367146118	-2.918065198649487	5.195084687419185	77.57941920009331	-24.14916220971887	9.443841664490183	119.927081215395	63.58711989503766	0	0	15.06825156504907	-9.234274961721704	-8.086048545171863	61.94367142187818	123.7087182680956	0	0
13.5599999999998	-5.730599700931356	-2.530643067661007	28.34119192671035	0	0.9399999999999999	0	43.6808966188437	-10.10317651096294	-10.14267687774545	55.64497320766694	0.9711879946578184	0	0	0	43.6808966188437	-10.10317651096294	-10.14267687774545	55.64497320766694	0.9711879946578184	0	0	0	-4.299237688934895	-2.90766402856021	5.173006865308191	77.75681148126613	-24.10871416715415	9.552315933162683	119.9592062814775	63.61700552369189	0	0	15.12586797636979	-9.22355934017653	-8.128556973384935	61.92976336778742	123.7257054471975	0	0
13.5799999999998	-5.720762672310072	-2.5314234149045	28.36658594553218	0	0.9399999999999999	0	43.68149142596091	-10.103138006314	-10.14259294687814	55.64475474406382	0.9711841817486482	0	0	0	43.68149142596091	-10.103138006314	-10.14259294687814	55.64475474406382	0.9711841817486482	0	0	0	-4.291816473080699	-2.911272908139967	5.164584464997922	77.84508511153925	-24.0590220634948	9.62669111489536	119.9720713676246	63.61225368281366	0	0	15.11045423925157	-9.227066201220374	-8.11595967705443	61.91942485836488	123.737196308507	0	0
13.5999999999998	-5.738315037677732	-2.517757310596973	28.36326645494859	0	0.9399999999999999	0	43.67767382799258	-10.10402580853584	-10.14344566027153	55.6460279596052	0.9712064035519329	0	0	0	43.67767382799258	-10.10402580853584	-10.14344566027153	55.6460279596052	0.9712064035519329	0	0	0	-4.297786448264631	-2.895455038286242	5.150213101733629	77.86703952280713	-24.02197722135563	9.677072094537603	120.0753596280184	63.50095011615701	0	0	15.13082356387473	-9.170475372836211	-8.176637281366201	61.87802230801887	123.8201815933748	0	0
13.6199999999998	-5.745301686287092	-2.513283765414823	28.37213132480939	0	0.9399999999999999	0	43.67733375061246	-10.10397681434607	-10.14346067079195	55.64616539292741	0.9712088022159073	0	0	0	43.67733375061246	-10.10397681434607	-10.14346067079195	55.64616539292741	0.9712088022159073	0	0	0	-4.301568082605352	-2.888539347212942	5.147711456331394	77.84006583129181	-23.98775544099782	9.675078184955968	120.0960727921982	63.46102153798257	0	0	15.14701643726388	-9.160961414766804	-8.178541113696532	61.87610660882837	123.8238685069992	0	0
13.6399999999998	-5.744102194492132	-2.50782606895453	28.3833632232705	0	0.9399999999999999	0	43.677592110195	-10.10382144249935	-10.14335834953879	55.64609549912547	0.9712075823389369	0	0	0	43.677592110195	-10.10382144249935	-10.14335834953879	55.64609549912547	0.9712075823389369	0	0	0	-4.298165764350322	-2.883891016129338	5.14694957342747	77.82259079312155	-23.99281938858604	9.685205829795587	120.0929901979111	63.41564528133655	0	0	15.14558415469509	-9.164856723764581	-8.179089723798588	61.87433566054516	123.8163674520321	0	0
13.6599999999998	-5.738906553178862	-2.499535262995568	28.38032074815137	0	0.9399999999999999	0	43.6762655393177	-10.10406084454841	-10.14362234400383	55.64654990606906	0.9712155132362464	0	0	0	43.6762655393177	-10.10406084454841	-10.14362234400383	55.64654990606906	0.9712155132362464	0	0	0	-4.288764063837718	-2.880191007237538	5.136805010072834	77.71100765399075	-23.98580365626875	9.648286078830314	120.1267801815059	63.15799063604762	0	0	15.12923928094788	-9.160332065565981	-8.194538804084564	61.84617481580297	123.8264170645146	0	0
13.6799999999998	-5.763185601364338	-2.495423006989207	28.37598686942945	0	0.9399999999999999	0	43.67635135048531	-10.10403824059696	-10.14360205183925	55.64652075774165	0.9712150045019616	0	0	0	43.67635135048531	-10.10403824059696	-10.14360205183925	55.64652075774165	0.9712150045019616	0	0	0	-4.308369883229235	-2.864741538081829	5.137478893433739	77.6018902592362	-23.99305011821045	9.649974850954989	120.1143758664648	63.12723705893397	0	-6.328798504320525e-36	15.18284771590383	-9.142312929953116	-8.202972280343369	61.85520677743249	123.8171691438809	0	-6.328798504320525e-36
